# xmcd CD database file
#
# Track frame offsets:
#	151
#	29174
#	52957
#	75430
#	97105
#	115360
#	135581
#	156570
#	171899
#	194380
#	216997
#
# Disc length: 3281 seconds
#
# Revision: 0
# Processed by: cddbd v1.5.1PL0 Copyright (c) Steve Scherf et al.
# Submitted via: CDex 1.51
#
DISCID=9f0ccf0b
DTITLE=Mahmuduzzaman Babu - Chokh Bheshe Jae Jole
DYEAR=2005
DGENRE=New Age
TTITLE0=Banglar Gaan Gai
TTITLE1=Raja Jae Raja Ashe
TTITLE2=Priyo Mrittika
TTITLE3=Shopner Jol
TTITLE4=Chokh Bheshe Jae Jole
TTITLE5=Bhor Hoe Ni
TTITLE6=Ghum Ghum Rat
TTITLE7=Gao Gao Jiboner Gaan
TTITLE8=Khepa Tui
TTITLE9=Asthahinotar Din
TTITLE10=Banglar Gaan Gai
EXTD=YEAR: 2005
EXTT0=
EXTT1=
EXTT2=
EXTT3=
EXTT4=
EXTT5=
EXTT6=
EXTT7=
EXTT8=
EXTT9=
EXTT10=
PLAYORDER=
